<svg width="33" height="24" viewBox="0 0 33 24" fill="none" xmlns="http://www.w3.org/2000/svg">
<path d="M30.7525 8.71566V24H0V2.16522H24.1627V6.53218H4.39322V19.633H26.3593V8.71566H30.7525Z" fill="#1380EC"/>
<path d="M32.9492 3.2788C32.9497 3.95632 32.7387 4.6173 32.3452 5.17054C31.9518 5.72378 31.3953 6.14201 30.7525 6.36751C30.52 6.44933 30.2789 6.50457 30.0338 6.53218H29.2747C29.0296 6.50457 28.7885 6.44933 28.5559 6.36751C27.9858 6.16764 27.4819 5.81575 27.0994 5.35036C26.7169 4.88496 26.4705 4.32396 26.3871 3.72873C26.3038 3.13349 26.3867 2.52694 26.6269 1.97541C26.867 1.42388 27.2551 0.948613 27.7487 0.601582C28.2423 0.254552 28.8224 0.0491246 29.4255 0.0077694C30.0287 -0.0335858 30.6317 0.0907222 31.1685 0.367099C31.7054 0.643477 32.1554 1.06128 32.4695 1.57481C32.7835 2.08834 32.9495 2.67783 32.9492 3.2788Z" fill="#1380EC"/>
</svg>
