<svg width="240" height="240" viewBox="0 0 240 240" fill="none" xmlns="http://www.w3.org/2000/svg">
<path d="M97.3031 138.525C97.3031 151.078 93.8939 162.42 88.4082 170.609C82.9203 178.802 75.3931 183.793 67.1452 183.793C58.8973 183.793 51.3701 178.802 45.8822 170.609C40.3965 162.42 36.9873 151.078 36.9873 138.525C36.9873 125.972 40.3965 114.63 45.8822 106.441C51.3701 98.2485 58.8973 93.2578 67.1452 93.2578C75.3931 93.2578 82.9203 98.2485 88.4082 106.441C93.8939 114.63 97.3031 125.972 97.3031 138.525Z" fill="white" stroke="black"/>
<path d="M97.3026 138.525C97.3026 146.089 95.248 152.915 91.9523 157.834C88.6545 162.758 84.1527 165.726 79.2468 165.726C74.3408 165.726 69.8391 162.758 66.5412 157.834C63.2456 152.915 61.1909 146.089 61.1909 138.525C61.1909 130.961 63.2456 124.136 66.5412 119.216C69.8391 114.293 74.3408 111.324 79.2468 111.324C84.1527 111.324 88.6545 114.293 91.9523 119.216C95.248 124.136 97.3026 130.961 97.3026 138.525Z" fill="#8CD990" stroke="black"/>
<path d="M158.618 138.525C158.618 151.078 155.209 162.42 149.723 170.609C144.235 178.802 136.708 183.793 128.46 183.793C120.212 183.793 112.685 178.802 107.197 170.609C101.711 162.42 98.3022 151.078 98.3022 138.525C98.3022 125.972 101.711 114.63 107.197 106.441C112.685 98.2485 120.212 93.2578 128.46 93.2578C136.708 93.2578 144.235 98.2485 149.723 106.441C155.209 114.63 158.618 125.972 158.618 138.525Z" fill="white" stroke="black"/>
<path d="M158.618 138.525C158.618 146.089 156.563 152.915 153.267 157.834C149.969 162.758 145.468 165.726 140.562 165.726C135.656 165.726 131.154 162.758 127.856 157.834C124.56 152.915 122.506 146.089 122.506 138.525C122.506 130.961 124.56 124.136 127.856 119.216C131.154 114.293 135.656 111.324 140.562 111.324C145.468 111.324 149.969 114.293 153.267 119.216C156.563 124.136 158.618 130.961 158.618 138.525Z" fill="#ADBDFF" stroke="black"/>
<path d="M146.517 128.89C146.517 131.465 145.817 133.774 144.711 135.425C143.603 137.079 142.127 138.025 140.563 138.025C138.999 138.025 137.523 137.079 136.415 135.425C135.309 133.774 134.609 131.465 134.609 128.89C134.609 126.315 135.309 124.006 136.415 122.356C137.523 120.702 138.999 119.755 140.563 119.755C142.127 119.755 143.603 120.702 144.711 122.356C145.817 124.006 146.517 126.315 146.517 128.89Z" fill="white" stroke="black"/>
<path d="M85.2001 128.89C85.2001 131.465 84.5 133.774 83.3943 135.425C82.2865 137.079 80.8102 138.025 79.246 138.025C77.6819 138.025 76.2056 137.079 75.0977 135.425C73.9921 133.774 73.292 131.465 73.292 128.89C73.292 126.315 73.9921 124.006 75.0977 122.356C76.2056 120.702 77.6819 119.755 79.246 119.755C80.8102 119.755 82.2865 120.702 83.3943 122.356C84.5 124.006 85.2001 126.315 85.2001 128.89Z" fill="white" stroke="black"/>
<path d="M38.9061 129.063C36.2168 112.658 39.7128 74.6857 75.2114 54.032C119.585 28.2148 223.661 54.8388 184.128 100.019" stroke="black"/>
<path d="M203.488 69.1848L191.019 96.3304L214.493 114.805L187.348 102.337L168.873 125.811L181.342 98.665L157.868 80.19L185.013 92.6589L203.488 69.1848Z" fill="black"/>
</svg>
