<svg width="240" height="240" viewBox="0 0 240 240" fill="none" xmlns="http://www.w3.org/2000/svg">
<path d="M97.3028 138.525C97.3028 151.078 93.8936 162.42 88.4079 170.609C82.92 178.802 75.3928 183.793 67.1449 183.793C58.8971 183.793 51.3699 178.802 45.882 170.609C40.3963 162.42 36.9871 151.078 36.9871 138.525C36.9871 125.972 40.3963 114.63 45.882 106.441C51.3699 98.2485 58.8971 93.2578 67.1449 93.2578C75.3928 93.2578 82.92 98.2485 88.4079 106.441C93.8936 114.63 97.3028 125.972 97.3028 138.525Z" fill="white" stroke="black"/>
<path d="M97.3024 138.525C97.3024 146.089 95.2477 152.915 91.9521 157.834C88.6542 162.758 84.1525 165.726 79.2465 165.726C74.3405 165.726 69.8388 162.758 66.541 157.834C63.2453 152.915 61.1907 146.089 61.1907 138.525C61.1907 130.961 63.2453 124.136 66.541 119.216C69.8388 114.293 74.3405 111.324 79.2465 111.324C84.1525 111.324 88.6542 114.293 91.9521 119.216C95.2477 124.136 97.3024 130.961 97.3024 138.525Z" fill="#8CD990" stroke="black"/>
<path d="M158.618 138.525C158.618 151.078 155.209 162.42 149.723 170.609C144.235 178.802 136.708 183.793 128.46 183.793C120.212 183.793 112.685 178.802 107.197 170.609C101.711 162.42 98.302 151.078 98.302 138.525C98.302 125.972 101.711 114.63 107.197 106.441C112.685 98.2485 120.212 93.2578 128.46 93.2578C136.708 93.2578 144.235 98.2485 149.723 106.441C155.209 114.63 158.618 125.972 158.618 138.525Z" fill="white" stroke="black"/>
<path d="M158.617 138.525C158.617 146.089 156.563 152.915 153.267 157.834C149.969 162.758 145.467 165.726 140.561 165.726C135.655 165.726 131.154 162.758 127.856 157.834C124.56 152.915 122.506 146.089 122.506 138.525C122.506 130.961 124.56 124.136 127.856 119.216C131.154 114.293 135.655 111.324 140.561 111.324C145.467 111.324 149.969 114.293 153.267 119.216C156.563 124.136 158.617 130.961 158.617 138.525Z" fill="#ADBDFF" stroke="black"/>
<path d="M146.516 128.89C146.516 131.465 145.816 133.774 144.711 135.425C143.603 137.079 142.127 138.025 140.562 138.025C138.998 138.025 137.522 137.079 136.414 135.425C135.308 133.774 134.608 131.465 134.608 128.89C134.608 126.315 135.308 124.006 136.414 122.356C137.522 120.702 138.998 119.755 140.562 119.755C142.127 119.755 143.603 120.702 144.711 122.356C145.816 124.006 146.516 126.315 146.516 128.89Z" fill="white" stroke="black"/>
<path d="M85.1998 128.89C85.1998 131.465 84.4997 133.774 83.3941 135.425C82.2862 137.079 80.81 138.025 79.2458 138.025C77.6816 138.025 76.2054 137.079 75.0975 135.425C73.9918 133.774 73.2917 131.465 73.2917 128.89C73.2917 126.315 73.9918 124.006 75.0975 122.356C76.2054 120.702 77.6816 119.755 79.2458 119.755C80.81 119.755 82.2862 120.702 83.3941 122.356C84.4997 124.006 85.1998 126.315 85.1998 128.89Z" fill="white" stroke="black"/>
<path d="M38.9056 129.063C36.2163 112.658 39.7123 74.6857 75.211 54.032C119.584 28.2148 223.66 54.8388 184.128 100.019" stroke="black"/>
<path d="M203.488 69.1848L191.019 96.3305L214.493 114.805L187.348 102.337L168.872 125.811L181.341 98.665L157.867 80.19L185.013 92.6589L203.488 69.1848Z" fill="black"/>
</svg>
