<svg width="133" height="132" viewBox="0 0 133 132" fill="none" xmlns="http://www.w3.org/2000/svg">
<mask id="path-1-inside-1" fill="white">
<path d="M65.9163 65.9164C61.5882 65.9164 57.3024 65.0639 53.3038 63.4076C49.3051 61.7513 45.6718 59.3236 42.6114 56.2631C39.5509 53.2027 37.1232 49.5694 35.4669 45.5707C33.8106 41.5721 32.9581 37.2863 32.9581 32.9582C32.9581 28.63 33.8106 24.3443 35.4669 20.3456C37.1232 16.347 39.5509 12.7137 42.6114 9.65322C45.6718 6.59277 49.3051 4.16509 53.3038 2.50879C57.3025 0.852486 61.5882 -2.00821e-06 65.9163 -1.44065e-06L65.9163 32.9582L65.9163 65.9164Z"/>
</mask>
<path d="M65.9163 65.9164C61.5882 65.9164 57.3024 65.0639 53.3038 63.4076C49.3051 61.7513 45.6718 59.3236 42.6114 56.2631C39.5509 53.2027 37.1232 49.5694 35.4669 45.5707C33.8106 41.5721 32.9581 37.2863 32.9581 32.9582C32.9581 28.63 33.8106 24.3443 35.4669 20.3456C37.1232 16.347 39.5509 12.7137 42.6114 9.65322C45.6718 6.59277 49.3051 4.16509 53.3038 2.50879C57.3025 0.852486 61.5882 -2.00821e-06 65.9163 -1.44065e-06L65.9163 32.9582L65.9163 65.9164Z" fill="#8E3AE2" stroke="black" stroke-width="2" mask="url(#path-1-inside-1)"/>
<mask id="path-2-inside-2" fill="white">
<path d="M65.9167 65.9162C70.2448 65.9162 74.5306 66.7686 78.5292 68.4249C82.5279 70.0812 86.1612 72.5089 89.2216 75.5694C92.2821 78.6298 94.7098 82.2631 96.3661 86.2618C98.0224 90.2605 98.8749 94.5462 98.8749 98.8743C98.8749 103.202 98.0224 107.488 96.3661 111.487C94.7098 115.486 92.2821 119.119 89.2216 122.179C86.1612 125.24 82.5279 127.667 78.5292 129.324C74.5306 130.98 70.2448 131.833 65.9167 131.833L65.9167 98.8743L65.9167 65.9162Z"/>
</mask>
<path d="M65.9167 65.9162C70.2448 65.9162 74.5306 66.7686 78.5292 68.4249C82.5279 70.0812 86.1612 72.5089 89.2216 75.5694C92.2821 78.6298 94.7098 82.2631 96.3661 86.2618C98.0224 90.2605 98.8749 94.5462 98.8749 98.8743C98.8749 103.202 98.0224 107.488 96.3661 111.487C94.7098 115.486 92.2821 119.119 89.2216 122.179C86.1612 125.24 82.5279 127.667 78.5292 129.324C74.5306 130.98 70.2448 131.833 65.9167 131.833L65.9167 98.8743L65.9167 65.9162Z" fill="#8E3AE2" stroke="black" stroke-width="2" mask="url(#path-2-inside-2)"/>
<mask id="path-3-inside-3" fill="white">
<path d="M65.9164 65.9168C65.9164 70.2449 65.0639 74.5307 63.4076 78.5294C61.7513 82.528 59.3236 86.1613 56.2631 89.2218C53.2027 92.2822 49.5694 94.7099 45.5707 96.3662C41.5721 98.0225 37.2863 98.875 32.9582 98.875C28.6301 98.875 24.3443 98.0225 20.3456 96.3662C16.347 94.7099 12.7137 92.2822 9.65323 89.2218C6.59278 86.1613 4.16509 82.528 2.50879 78.5294C0.852488 74.5307 -3.78377e-07 70.2449 0 65.9168L32.9582 65.9168L65.9164 65.9168Z"/>
</mask>
<path d="M65.9164 65.9168C65.9164 70.2449 65.0639 74.5307 63.4076 78.5294C61.7513 82.528 59.3236 86.1613 56.2631 89.2218C53.2027 92.2822 49.5694 94.7099 45.5707 96.3662C41.5721 98.0225 37.2863 98.875 32.9582 98.875C28.6301 98.875 24.3443 98.0225 20.3456 96.3662C16.347 94.7099 12.7137 92.2822 9.65323 89.2218C6.59278 86.1613 4.16509 82.528 2.50879 78.5294C0.852488 74.5307 -3.78377e-07 70.2449 0 65.9168L32.9582 65.9168L65.9164 65.9168Z" fill="#8E3AE2" stroke="black" stroke-width="2" mask="url(#path-3-inside-3)"/>
<mask id="path-4-inside-4" fill="white">
<path d="M65.9176 65.9169C65.9176 61.5888 66.7701 57.3031 68.4264 53.3044C70.0827 49.3057 72.5104 45.6724 75.5708 42.612C78.6313 39.5515 82.2646 37.1239 86.2633 35.4675C90.2619 33.8112 94.5477 32.9588 98.8758 32.9588C103.204 32.9588 107.49 33.8112 111.488 35.4675C115.487 37.1239 119.12 39.5515 122.181 42.612C125.241 45.6724 127.669 49.3057 129.325 53.3044C130.981 57.3031 131.834 61.5888 131.834 65.9169L98.8758 65.9169L65.9176 65.9169Z"/>
</mask>
<path d="M65.9176 65.9169C65.9176 61.5888 66.7701 57.3031 68.4264 53.3044C70.0827 49.3057 72.5104 45.6724 75.5708 42.612C78.6313 39.5515 82.2646 37.1239 86.2633 35.4675C90.2619 33.8112 94.5477 32.9588 98.8758 32.9588C103.204 32.9588 107.49 33.8112 111.488 35.4675C115.487 37.1239 119.12 39.5515 122.181 42.612C125.241 45.6724 127.669 49.3057 129.325 53.3044C130.981 57.3031 131.834 61.5888 131.834 65.9169L98.8758 65.9169L65.9176 65.9169Z" fill="#8E3AE2" stroke="black" stroke-width="2" mask="url(#path-4-inside-4)"/>
</svg>
