<svg width="808" height="853" viewBox="0 0 808 853" fill="none" xmlns="http://www.w3.org/2000/svg">
<g clip-path="url(#clip0_4600_17870)">
<rect width="392" height="853" rx="8" fill="#232B34"/>
<path d="M82.8467 469.144L83.4968 470.149C92.4979 484.058 110.018 489.751 125.476 483.789L126.592 483.358C146.218 475.788 167.121 490.975 165.986 511.979L165.922 513.174C165.028 529.717 175.856 544.621 191.866 548.884L193.022 549.191C213.349 554.603 221.333 579.176 208.069 595.502L207.315 596.43C196.868 609.289 196.868 627.711 207.315 640.57L208.07 641.498C221.333 657.824 213.349 682.397 193.022 687.809L191.866 688.116C175.856 692.379 165.028 707.283 165.922 723.826L165.986 725.021C167.121 746.025 146.218 761.212 126.592 753.642L125.476 753.211C110.018 747.249 92.4979 752.942 83.4968 766.851L82.8467 767.856C71.4188 785.515 45.5812 785.515 34.1533 767.856L33.5032 766.851C24.5021 752.942 6.98174 747.249 -8.47588 753.211L-9.59236 753.642C-29.2175 761.212 -50.1206 746.025 -48.9861 725.021L-48.9216 723.826C-48.028 707.283 -58.8562 692.379 -74.866 688.116L-76.0224 687.809C-96.3487 682.397 -104.333 657.824 -91.0695 641.498L-90.3149 640.57C-79.868 627.711 -79.868 609.289 -90.3149 596.43L-91.0695 595.502C-104.333 579.176 -96.3487 554.603 -76.0224 549.191L-74.866 548.884C-58.8562 544.621 -48.028 529.717 -48.9216 513.174L-48.9861 511.979C-50.1206 490.975 -29.2175 475.788 -9.59235 483.358L-8.47586 483.789C6.98177 489.751 24.5021 484.058 33.5032 470.149L34.1533 469.144C45.5812 451.485 71.4188 451.485 82.8467 469.144Z" stroke="white" stroke-width="6"/>
<circle cx="302.5" cy="182.5" r="72.5" fill="white"/>
<circle cx="264.179" cy="182.5" r="70.5" fill="#232B34" stroke="white" stroke-width="4"/>
<path d="M-26 118.5C604.5 728 213 590.5 283 899.5" stroke="white" stroke-width="4"/>
</g>
<rect x="416" width="392" height="853" rx="8" fill="#1380EC"/>
<defs>
<clipPath id="clip0_4600_17870">
<rect width="392" height="853" rx="8" fill="white"/>
</clipPath>
</defs>
</svg>
