<svg width="23" height="25" viewBox="0 0 23 25" fill="none" xmlns="http://www.w3.org/2000/svg">
<path d="M12.7722 11.988L16.7148 8.04531L3.98016 0.88798C3.13616 0.43198 2.3455 0.36798 1.65216 0.866647L12.7722 11.988ZM17.3868 16.604L21.4855 14.2986C22.2855 13.8506 22.7242 13.216 22.7242 12.512C22.7242 11.8093 22.2855 11.1733 21.4868 10.7253L17.7762 8.64131L13.5988 12.8173L17.3868 16.604ZM0.966829 1.83598C0.881496 2.09865 0.833496 2.39198 0.833496 2.71331V22.32C0.833496 22.828 0.945496 23.2653 1.14816 23.6133L11.9442 12.816L0.966829 1.83598ZM12.7722 13.6426L2.03616 24.38C2.2415 24.4586 2.46283 24.5 2.69616 24.5C3.11216 24.5 3.5455 24.3773 3.98683 24.132L16.3268 17.2026L12.7722 13.6426Z" fill="#1380EC"/>
</svg>
