<svg width="240" height="240" viewBox="0 0 240 240" fill="none" xmlns="http://www.w3.org/2000/svg">
<path d="M125.8 82.8284L125.974 83.9429L126.683 83.065L149.947 54.237L136.613 88.7984L136.207 89.8509L137.26 89.4449L171.821 76.1112L142.993 99.3755L142.115 100.084L143.23 100.259L179.828 105.992L143.23 111.725L142.115 111.9L142.993 112.608L171.821 135.873L137.26 122.539L136.207 122.133L136.613 123.185L149.947 157.747L126.683 128.919L125.974 128.041L125.8 129.156L120.066 165.753L114.333 129.156L114.158 128.041L113.45 128.919L90.1855 157.747L103.519 123.185L103.925 122.133L102.873 122.539L68.3113 135.873L97.1393 112.608L98.0172 111.9L96.9027 111.725L60.3048 105.992L96.9027 100.259L98.0172 100.084L97.1393 99.3755L68.3113 76.1112L102.873 89.4449L103.925 89.8509L103.519 88.7984L90.1855 54.237L113.45 83.065L114.158 83.9429L114.333 82.8284L120.066 46.2305L125.8 82.8284Z" fill="white" stroke="black"/>
<path d="M91.7929 90.9345C70.4908 73.1043 43.0329 79.5338 32.2939 89.8706L42.5856 97.8327C49.1623 91.2219 67.4044 83.034 89.9154 100.45C109.813 115.843 131.42 105.871 138.372 97.3575L129.452 90.457C129.452 90.457 113.095 108.765 91.7929 90.9345Z" fill="#2BEDE1" stroke="black"/>
<path d="M90.4458 99.7631C69.1436 81.9328 41.6857 88.3623 30.9468 98.6992L41.2384 106.661C47.8151 100.051 66.0572 91.8626 88.5682 109.278C108.465 124.672 130.072 114.7 137.025 106.186L128.105 99.2855C128.105 99.2855 111.748 117.593 90.4458 99.7631Z" fill="black" stroke="black"/>
<path d="M162.475 135.093C141.172 117.263 113.715 123.692 102.976 134.029L113.267 141.991C119.844 135.381 138.086 127.193 160.597 144.608C180.494 160.002 202.101 150.03 209.053 141.516L200.134 134.616C200.134 134.616 183.777 152.923 162.475 135.093Z" fill="#EDB72B" stroke="black"/>
<path d="M161.128 143.922C139.826 126.091 112.368 132.521 101.629 142.858L111.921 150.82C118.497 144.209 136.739 136.021 159.25 153.437C179.148 168.83 200.754 158.858 207.707 150.345L198.787 143.444C198.787 143.444 182.43 161.752 161.128 143.922Z" fill="black" stroke="black"/>
</svg>
