<svg width="28" height="24" viewBox="0 0 28 24" fill="none" xmlns="http://www.w3.org/2000/svg">
<path d="M13.0002 6.00036C13.0003 4.85156 13.3959 3.73783 14.1206 2.84641C14.8452 1.95498 15.8547 1.34023 16.9792 1.10551C18.1038 0.870781 19.2749 1.0304 20.2956 1.55752C21.3164 2.08464 22.1245 2.94712 22.5841 3.99996L27.0002 4L22.9674 8.03282C22.7048 12.089 20.9083 15.8933 17.9428 18.6731C14.9772 21.4529 11.0649 22.9999 7.00019 23C3.00019 23 2.00019 21.5 2.00019 21.5C2.00019 21.5 6.00019 20 8.00019 17C8.00019 17 0.000186861 13 2.00019 2C2.00019 2 7.00019 7 12.9985 8L13.0002 6.00036Z" stroke="black" stroke-width="2" stroke-linecap="round" stroke-linejoin="round"/>
</svg>
