<svg width="24" height="24" viewBox="0 0 22 16" fill="none" xmlns="http://www.w3.org/2000/svg">
<path d="M18.8048 4.31246C18.7356 4.24352 18.6655 4.17574 18.5946 4.10912L20.9234 1.78034C21.0639 1.63966 21.1428 1.44894 21.1427 1.25012C21.1427 1.05129 21.0637 0.860624 20.9231 0.720032C20.7825 0.57944 20.5918 0.500429 20.393 0.500366C20.1941 0.500304 20.0034 0.579195 19.8628 0.719699L17.428 3.15441C15.6634 1.91206 13.5573 1.24676 11.3992 1.24996C9.2411 1.25317 7.13697 1.92472 5.37604 3.17231L2.92339 0.719703C2.78271 0.579199 2.592 0.500307 2.39317 0.50037C2.19434 0.500432 2.00368 0.579443 1.86308 0.720035C1.72249 0.860627 1.64348 1.05129 1.64342 1.25012C1.64336 1.44895 1.72225 1.63966 1.86275 1.78034L4.21209 4.12968C3.16248 5.12407 2.32678 6.32215 1.75609 7.65061C1.18541 8.97908 0.89175 10.41 0.893071 11.8559V14C0.893526 14.3977 1.05171 14.779 1.33291 15.0602C1.61412 15.3414 1.99539 15.4996 2.39307 15.5H20.3931C20.7908 15.4996 21.172 15.3414 21.4532 15.0602C21.7344 14.779 21.8926 14.3977 21.8931 14V11.75C21.8969 10.3675 21.6259 8.99798 21.0957 7.72115C20.5655 6.44431 19.7868 5.28562 18.8048 4.31246ZM8.01807 11.75C7.79557 11.75 7.57806 11.684 7.39305 11.5604C7.20805 11.4368 7.06385 11.2611 6.97871 11.0555C6.89356 10.85 6.87128 10.6238 6.91469 10.4055C6.9581 10.1873 7.06524 9.98686 7.22258 9.82953C7.37991 9.67219 7.58037 9.56505 7.79859 9.52164C8.01682 9.47823 8.24302 9.50051 8.44859 9.58566C8.65416 9.67081 8.82986 9.815 8.95347 10C9.07709 10.185 9.14307 10.4025 9.14307 10.625C9.14307 10.9234 9.02454 11.2095 8.81357 11.4205C8.60259 11.6315 8.31644 11.75 8.01807 11.75ZM14.7681 11.75C14.5456 11.75 14.3281 11.684 14.1431 11.5604C13.958 11.4368 13.8139 11.2611 13.7287 11.0555C13.6436 10.85 13.6213 10.6238 13.6647 10.4055C13.7081 10.1873 13.8152 9.98686 13.9726 9.82953C14.1299 9.67219 14.3304 9.56505 14.5486 9.52164C14.7668 9.47823 14.993 9.50051 15.1986 9.58566C15.4042 9.67081 15.5799 9.815 15.7035 10C15.8271 10.185 15.8931 10.4025 15.8931 10.625C15.8931 10.9234 15.7745 11.2095 15.5636 11.4205C15.3526 11.6315 15.0664 11.75 14.7681 11.75Z" fill="#232B34"/>
</svg>
