<svg width="24" height="24" viewBox="0 0 17 20" fill="none" xmlns="http://www.w3.org/2000/svg">
<path d="M16.0582 14.811C15.7813 15.4565 15.4392 16.072 15.0372 16.648C14.5002 17.415 14.0592 17.945 13.7212 18.24C13.1962 18.722 12.6322 18.97 12.0292 18.984C11.5972 18.984 11.0752 18.861 10.4672 18.611C9.85721 18.362 9.29721 18.24 8.78421 18.24C8.24721 18.24 7.67121 18.362 7.05421 18.611C6.43821 18.861 5.94021 18.992 5.55921 19.004C4.98221 19.029 4.40521 18.775 3.83021 18.24C3.46321 17.92 3.00421 17.37 2.45321 16.592C1.86321 15.763 1.37821 14.798 0.998207 13.701C0.591207 12.514 0.387207 11.366 0.387207 10.254C0.387207 8.98102 0.662207 7.88202 1.21321 6.96202C1.62996 6.23949 2.22576 5.63646 2.94321 5.21102C3.65067 4.78669 4.45829 4.55821 5.28321 4.54902C5.74321 4.54902 6.34621 4.69102 7.09321 4.97102C7.84021 5.25102 8.32021 5.39302 8.52921 5.39302C8.68721 5.39302 9.21821 5.22602 10.1222 4.89502C10.9752 4.58802 11.6952 4.46102 12.2852 4.51102C13.8852 4.64002 15.0862 5.27002 15.8852 6.40602C14.4552 7.27302 13.7482 8.48602 13.7622 10.043C13.7742 11.256 14.2152 12.265 15.0792 13.066C15.4612 13.4316 15.9069 13.7241 16.3942 13.929C16.2882 14.236 16.1762 14.529 16.0582 14.811ZM12.3912 0.380024C12.3912 1.33002 12.0432 2.21802 11.3522 3.03902C10.5162 4.01502 9.50621 4.58002 8.41121 4.49102C8.39688 4.37156 8.38987 4.25134 8.39021 4.13102C8.39021 3.21802 8.78621 2.24202 9.49321 1.44302C9.84521 1.03902 10.2932 0.702024 10.8362 0.434024C11.3782 0.170024 11.8902 0.0240234 12.3722 -0.000976562C12.3852 0.127023 12.3912 0.254024 12.3912 0.380024Z" fill="#232B34"/>
</svg>
