<svg width="151" height="24" viewBox="0 0 151 24" fill="none" xmlns="http://www.w3.org/2000/svg">
<path d="M30.7525 8.71566V24H0V2.16522H24.1627V6.53218H4.39322V19.633H26.3593V8.71566H30.7525Z" fill="#1380EC"/>
<path d="M32.9491 3.2788C32.9497 3.95632 32.7387 4.6173 32.3452 5.17054C31.9518 5.72378 31.3953 6.14201 30.7525 6.36751C30.52 6.44933 30.2789 6.50457 30.0338 6.53218H29.2747C29.0296 6.50457 28.7885 6.44933 28.5559 6.36751C27.9858 6.16764 27.4819 5.81575 27.0994 5.35036C26.7168 4.88496 26.4705 4.32396 26.3871 3.72873C26.3038 3.13349 26.3867 2.52694 26.6269 1.97541C26.867 1.42388 27.2551 0.948613 27.7487 0.601582C28.2423 0.254552 28.8224 0.0491246 29.4255 0.0077694C30.0287 -0.0335858 30.6317 0.0907222 31.1685 0.367099C31.7054 0.643477 32.1554 1.06128 32.4695 1.57481C32.7835 2.08834 32.9495 2.67783 32.9491 3.2788Z" fill="#1380EC"/>
<path d="M46.6132 20.472C48.9532 20.472 50.7652 19.344 51.6052 17.04L49.2772 16.116C48.8692 17.328 48.0292 18.156 46.6132 18.156C44.5252 18.156 43.6132 16.284 43.6132 14.328C43.6132 12.396 44.5252 10.512 46.6132 10.512C48.0292 10.512 48.8692 11.352 49.2772 12.552L51.6052 11.628C50.7652 9.32402 48.9532 8.20802 46.6132 8.20802C42.8932 8.20802 40.9492 11.124 40.9492 14.328C40.9492 17.556 42.8932 20.472 46.6132 20.472Z" fill="#1380EC"/>
<path d="M55.8894 20.472C56.3934 20.472 57.0654 20.364 57.7014 20.124V17.856C57.3654 17.952 57.0534 18.024 56.7774 18.024C56.2254 18.024 55.8654 17.724 55.8654 16.968V3.52802H53.2134V17.484C53.2134 19.56 54.3414 20.472 55.8894 20.472Z" fill="#1380EC"/>
<path d="M66.8651 20.256H69.3131V12.804C69.3131 9.92402 67.4411 8.20802 64.2491 8.20802C62.2091 8.20802 60.3011 8.89202 58.9211 10.44L60.8531 12.06C61.9091 10.908 62.9171 10.512 64.0571 10.512C65.7611 10.512 66.6731 11.376 66.6731 12.804V13.14H63.1691C62.0411 13.14 61.0091 13.332 60.2051 13.812C59.3051 14.352 58.7051 15.3 58.7051 16.644C58.7051 18.948 60.5411 20.472 63.1931 20.472C64.6091 20.472 65.8931 19.98 66.7211 18.744L66.8651 20.256ZM61.3811 16.656C61.3811 16.152 61.5731 15.768 61.9211 15.516C62.3531 15.216 62.9771 15.12 63.5531 15.12H66.6731V15.348C66.6731 17.076 65.2331 18.324 63.5291 18.324C62.2091 18.324 61.3811 17.676 61.3811 16.656Z" fill="#1380EC"/>
<path d="M75.5998 20.472C78.4318 20.472 80.3158 18.924 80.3158 16.596C80.3158 13.872 77.8438 13.272 75.9118 12.804C74.3278 12.432 73.6558 12.12 73.6558 11.412C73.6558 10.68 74.4238 10.248 75.4198 10.248C76.5238 10.248 77.4838 10.776 78.0598 11.652L79.8718 10.392C78.9718 8.97602 77.3878 8.20802 75.5038 8.20802C72.9238 8.20802 71.1838 9.57602 71.1838 11.664C71.1838 13.968 73.2358 14.664 75.1558 15.168C76.5358 15.54 77.6998 15.852 77.6998 16.896C77.6998 17.724 76.9198 18.3 75.6238 18.3C74.0758 18.3 72.9958 17.412 72.4198 16.404L70.5838 17.988C71.3998 19.152 73.0318 20.472 75.5998 20.472Z" fill="#1380EC"/>
<path d="M86.1767 20.472C89.0087 20.472 90.8927 18.924 90.8927 16.596C90.8927 13.872 88.4207 13.272 86.4887 12.804C84.9047 12.432 84.2327 12.12 84.2327 11.412C84.2327 10.68 85.0007 10.248 85.9967 10.248C87.1007 10.248 88.0606 10.776 88.6367 11.652L90.4487 10.392C89.5487 8.97602 87.9647 8.20802 86.0807 8.20802C83.5007 8.20802 81.7607 9.57602 81.7607 11.664C81.7607 13.968 83.8127 14.664 85.7327 15.168C87.1127 15.54 88.2767 15.852 88.2767 16.896C88.2767 17.724 87.4967 18.3 86.2007 18.3C84.6527 18.3 83.5727 17.412 82.9967 16.404L81.1607 17.988C81.9767 19.152 83.6087 20.472 86.1767 20.472Z" fill="#1380EC"/>
<path d="M98.8895 20.472C102.046 20.472 104.038 17.832 104.038 14.328C104.038 10.512 101.734 8.20802 98.8895 8.20802C97.4135 8.20802 96.1175 8.84402 95.3615 10.068V3.52802H92.7095V20.256H95.3615V18.648C96.1775 19.956 97.4615 20.472 98.8895 20.472ZM95.1215 14.328C95.1215 12.12 96.3695 10.632 98.2295 10.632C100.114 10.632 101.362 12.108 101.362 14.328C101.362 16.56 100.114 18.024 98.2295 18.024C96.3695 18.024 95.1215 16.548 95.1215 14.328Z" fill="#1380EC"/>
<path d="M111.251 20.472C114.623 20.472 117.119 17.88 117.119 14.328C117.119 10.764 114.647 8.20802 111.251 8.20802C107.807 8.20802 105.347 10.764 105.347 14.328C105.347 17.904 107.843 20.472 111.251 20.472ZM108.011 14.328C108.011 11.976 109.235 10.536 111.251 10.536C113.231 10.536 114.443 11.964 114.443 14.328C114.443 16.68 113.231 18.132 111.251 18.132C109.247 18.132 108.011 16.68 108.011 14.328Z" fill="#1380EC"/>
<path d="M126.593 20.256H129.041V12.804C129.041 9.92402 127.169 8.20802 123.977 8.20802C121.937 8.20802 120.029 8.89202 118.649 10.44L120.581 12.06C121.637 10.908 122.645 10.512 123.785 10.512C125.489 10.512 126.401 11.376 126.401 12.804V13.14H122.897C121.769 13.14 120.737 13.332 119.933 13.812C119.033 14.352 118.433 15.3 118.433 16.644C118.433 18.948 120.269 20.472 122.921 20.472C124.337 20.472 125.621 19.98 126.449 18.744L126.593 20.256ZM121.109 16.656C121.109 16.152 121.301 15.768 121.649 15.516C122.081 15.216 122.705 15.12 123.281 15.12H126.401V15.348C126.401 17.076 124.961 18.324 123.257 18.324C121.937 18.324 121.109 17.676 121.109 16.656Z" fill="#1380EC"/>
<path d="M131.272 20.256H133.948V15.024C133.948 13.692 134.02 13.14 134.176 12.66C134.596 11.388 135.616 10.848 136.636 10.848C137.152 10.848 137.752 11.028 138.112 11.232L139.408 8.83202C138.664 8.37602 137.98 8.20802 137.272 8.20802C136.048 8.20802 134.692 8.91602 133.96 10.092V8.42402H131.272V20.256Z" fill="#1380EC"/>
<path d="M144.606 20.472C146.034 20.472 147.318 19.956 148.134 18.648V20.256H150.786V3.52802H148.134V10.068C147.378 8.84402 146.082 8.20802 144.606 8.20802C141.762 8.20802 139.458 10.512 139.458 14.328C139.458 17.832 141.45 20.472 144.606 20.472ZM142.134 14.328C142.134 12.108 143.382 10.632 145.266 10.632C147.126 10.632 148.374 12.12 148.374 14.328C148.374 16.548 147.126 18.024 145.266 18.024C143.382 18.024 142.134 16.56 142.134 14.328Z" fill="#1380EC"/>
</svg>
